<svg width="79" height="79" viewBox="0 0 79 79" fill="none" xmlns="http://www.w3.org/2000/svg">
<path d="M9.5 56.3751C9.5 62.5881 14.5368 67.6251 20.75 67.6251C20.75 72.8027 24.9473 77 30.125 77C35.3026 77 39.5 72.8027 39.5 67.6251C39.5 72.8027 43.6974 76.9996 48.875 76.9996C54.0526 76.9996 58.25 72.8023 58.25 67.6247C64.4634 67.6247 69.5 62.5877 69.5 56.3748C69.5 54.2422 68.9067 52.2483 67.8762 50.5492C73.0726 49.5551 77 44.9861 77 39.4999C77 34.0133 73.0726 29.4444 67.8762 28.4504C68.9067 26.7512 69.5 24.7573 69.5 22.6249C69.5 16.4117 64.4634 11.3749 58.25 11.3749C58.25 6.19727 54.0526 2 48.875 2C43.6974 2 39.5 6.19764 39.5 11.3753C39.5 6.19764 35.3026 2.00034 30.125 2.00034C24.9473 2.00034 20.75 6.19764 20.75 11.3753C14.5368 11.3753 9.5 16.412 9.5 22.6252C9.5 24.7577 10.0933 26.7516 11.1239 28.4508C5.92726 29.4447 2 34.0137 2 39.5003C2 44.9865 5.92726 49.5554 11.1239 50.5496C10.0933 52.2487 9.5 54.2425 9.5 56.3751Z" fill="#464646" stroke="url(#paint0_linear_140_735)" stroke-width="4" stroke-linecap="round" stroke-linejoin="round"/>
<defs>
<linearGradient id="paint0_linear_140_735" x1="106.245" y1="77" x2="-15.2645" y2="2.07699" gradientUnits="userSpaceOnUse">
<stop stop-color="#444444"/>
<stop offset="0.5" stop-color="#EEEEEE"/>
<stop offset="0.995" stop-color="#444444"/>
</linearGradient>
</defs>
</svg>
